<svg width="35" height="35" viewBox="0 0 35 35" fill="none" xmlns="http://www.w3.org/2000/svg">
<path d="M17.291 1.36342e-05C14.2837 0.00135003 11.3288 0.778418 8.71808 2.25446C6.10741 3.7305 3.93132 5.85445 2.40479 8.4165C0.878252 10.9785 0.0540781 13.89 0.0136777 16.8634C-0.0267226 19.8368 0.718049 22.7691 2.17442 25.3708L0 34.1861L8.91948 32.036C11.2277 33.3036 13.799 34.0316 16.4359 34.164C19.0729 34.2965 21.7055 33.8299 24.1317 32.8C26.558 31.7702 28.7134 30.2045 30.4327 28.223C32.1519 26.2415 33.3893 23.897 34.0498 21.3692C34.7104 18.8415 34.7765 16.1977 34.2433 13.6407C33.71 11.0837 32.5914 8.68154 30.9734 6.6184C29.3554 4.55527 27.2809 2.88604 24.9092 1.73878C22.5374 0.591515 19.9314 -0.00328363 17.291 1.36342e-05V1.36342e-05ZM20.7266 26.6006H19.5698C18.0707 26.6276 16.6221 26.0645 15.5428 25.0354C14.9897 24.5177 14.5531 23.8905 14.2616 23.1948C13.9701 22.499 13.8302 21.7504 13.8511 20.9976V7.49514H17.0083V12.3027H20.7005V15.3128H17.0127V20.989C16.9966 21.3333 17.0541 21.6771 17.1815 21.9979C17.3089 22.3187 17.5033 22.6094 17.752 22.8509C17.9872 23.0909 18.2702 23.2802 18.5831 23.4067C18.8959 23.5333 19.2319 23.5944 19.5698 23.5862H20.7223L20.7266 26.6006Z" fill="#2F92FF"/>
</svg>
